<svg xmlns="http://www.w3.org/2000/svg" version="1.1" xmlns:xlink="http://www.w3.org/1999/xlink" xmlns:svgjs="http://svgjs.com/svgjs" width="1440" height="560" preserveAspectRatio="none" viewBox="0 0 1440 560"><g mask="url(&quot;#SvgjsMask1000&quot;)" fill="none"><rect width="1440" height="560" x="0" y="0" fill="#1e3266"></rect><path d="M1560 560L0 560 L0 295.83Q68.1 243.93, 120 312.03Q201.18 273.2, 240 354.38Q260.81 303.19, 312 323.99Q366.37 258.36, 432 312.73Q505.29 266.02, 552 339.32Q590.04 257.36, 672 295.4Q724.94 228.34, 792 281.28Q841.86 259.14, 864 309Q930.48 255.48, 984 321.96Q1066.81 284.77, 1104 367.58Q1124.36 315.94, 1176 336.3Q1205.58 293.88, 1248 323.46Q1275.09 278.55, 1320 305.64Q1403.62 269.25, 1440 352.87Q1490.93 283.81, 1560 334.74z" fill="#182f5d"></path><path d="M1488 560L0 560 L0 367.93Q33.35 329.28, 72 362.64Q137.51 356.15, 144 421.66Q174.75 380.42, 216 411.17Q245.46 368.63, 288 398.1Q342.32 380.43, 360 434.75Q364.31 367.06, 432 371.36Q460.5 327.86, 504 356.36Q566.4 346.76, 576 409.17Q651.82 364.99, 696 440.81Q706.71 379.52, 768 390.24Q791.82 342.06, 840 365.87Q932.75 338.62, 960 431.36Q987.73 387.09, 1032 414.82Q1054.55 365.37, 1104 387.91Q1121.47 333.38, 1176 350.85Q1248.03 302.88, 1296 374.92Q1373.27 332.19, 1416 409.46Q1428.41 349.88, 1488 362.29z" fill="#25467d"></path><path d="M1464 560L0 560 L0 456.79Q46.34 383.13, 120 429.47Q205.39 394.86, 240 480.25Q281.34 401.59, 360 442.93Q450.26 413.19, 480 503.45Q523.29 426.75, 600 470.04Q646.41 396.46, 720 442.87Q747.15 398.02, 792 425.17Q871.94 385.12, 912 465.06Q970.85 451.91, 984 510.77Q989.16 443.93, 1056 449.09Q1080.27 401.36, 1128 425.62Q1170.31 395.93, 1200 438.23Q1243.9 410.13, 1272 454.03Q1334.49 444.52, 1344 507.01Q1362.76 405.76, 1464 424.52z" fill="#356cb1"></path><path d="M1464 560L0 560 L0 557.39Q32.62 470, 120 502.62Q179.09 489.71, 192 548.81Q247.44 532.25, 264 587.69Q266.11 517.8, 336 519.91Q389.42 453.33, 456 506.74Q540.25 470.99, 576 555.24Q628.49 487.73, 696 540.21Q723.63 495.85, 768 523.48Q798.07 481.55, 840 511.61Q936.62 488.23, 960 584.84Q982.54 535.38, 1032 557.93Q1041.56 495.49, 1104 505.04Q1133.11 462.15, 1176 491.26Q1237.62 480.88, 1248 542.49Q1277.21 499.7, 1320 528.91Q1346.04 482.94, 1392 508.98Q1445.13 490.11, 1464 543.24z" fill="white"></path></g><defs><mask id="SvgjsMask1000"><rect width="1440" height="560" fill="#ffffff"></rect></mask></defs></svg>