<svg xmlns="http://www.w3.org/2000/svg" version="1.1" xmlns:xlink="http://www.w3.org/1999/xlink" xmlns:svgjs="http://svgjs.com/svgjs" width="1440" height="560" preserveAspectRatio="none" viewBox="0 0 1440 560"><g mask="url(&quot;#SvgjsMask1033&quot;)" fill="none"><rect width="1440" height="560" x="0" y="0" fill="rgba(0, 29, 59, 1)"></rect><path d="M506.89 200.46L525.68 200.46L525.68 219.25L506.89 219.25z" stroke="rgba(192, 105, 0, 1)"></path><path d="M1305.96 324.58L1307.59 324.58L1307.59 358.13L1305.96 358.13z" fill="rgba(186, 158, 1, 1)"></path><path d="M484.14 258.51L490.57 258.51L490.57 287.49L484.14 287.49z" stroke="rgba(186, 158, 1, 1)"></path><path d="M574.36 493.07a15.23 15.23 0 1 0-26.54-14.95z" fill="rgba(192, 105, 0, 1)"></path><path d="M1082.77 68.07 a13.25 13.25 0 1 0 26.5 0 a13.25 13.25 0 1 0 -26.5 0z" stroke="rgba(192, 105, 0, 1)"></path><path d="M307.02 294.22 a27.79 27.79 0 1 0 55.58 0 a27.79 27.79 0 1 0 -55.58 0z" fill="rgba(186, 158, 1, 1)"></path><path d="M1117.72 396.86 a39.97 39.97 0 1 0 79.94 0 a39.97 39.97 0 1 0 -79.94 0z" stroke="rgba(23, 113, 200, 1)"></path><path d="M1419.23 214.91L1458.37 214.91L1458.37 254.05L1419.23 254.05z" stroke="rgba(192, 105, 0, 1)"></path><path d="M1174.19 424.22a3.34 3.34 0 1 0-3.74-5.54z" fill="rgba(186, 158, 1, 1)"></path><path d="M368.72 341.09a50.37 50.37 0 1 0-28.12-96.74z" stroke="rgba(186, 158, 1, 1)"></path><path d="M1037.29 338.37L1055.74 338.37L1055.74 362.58L1037.29 362.58z" stroke="rgba(186, 158, 1, 1)"></path><path d="M293.84 496.49 a37.95 37.95 0 1 0 75.9 0 a37.95 37.95 0 1 0 -75.9 0z" fill="rgba(192, 105, 0, 1)"></path><path d="M281.09 277.16 a47.69 47.69 0 1 0 95.38 0 a47.69 47.69 0 1 0 -95.38 0z" fill="rgba(23, 113, 200, 1)"></path><path d="M620.57 212.24a19.14 19.14 0 1 0-35.11 15.25z" stroke="rgba(192, 105, 0, 1)"></path><path d="M449.29 373.8L459.45 373.8L459.45 390.23L449.29 390.23z" stroke="rgba(23, 113, 200, 1)"></path><path d="M-41.62 226.3a48.71 48.71 0 1 0 86.27 45.26z" stroke="rgba(23, 113, 200, 1)"></path><path d="M896.13 512.57a42.97 42.97 0 1 0-82.29-24.78z" fill="rgba(186, 158, 1, 1)"></path><path d="M56.1 68.32L63.14 68.32L63.14 70.9L56.1 70.9z" fill="rgba(186, 158, 1, 1)"></path><path d="M14.72 198.54L31.02 198.54L31.02 214.84L14.72 214.84z" stroke="rgba(192, 105, 0, 1)"></path><path d="M463.53 178.59a32.72 32.72 0 1 0-59.4-27.46z" stroke="rgba(186, 158, 1, 1)"></path><path d="M1310.97 58.75a34.69 34.69 0 1 0-2.95 69.31z" stroke="rgba(192, 105, 0, 1)"></path><path d="M1034.18 512.76 a17.18 17.18 0 1 0 34.36 0 a17.18 17.18 0 1 0 -34.36 0z" fill="rgba(192, 105, 0, 1)"></path><path d="M1132.84 331.39a39.35 39.35 0 1 0 68.47 38.8z" fill="rgba(192, 105, 0, 1)"></path><path d="M405.1 543.29L442.86 543.29L442.86 581.05L405.1 581.05z" stroke="rgba(192, 105, 0, 1)"></path><path d="M1299.5 236.44L1306.99 236.44L1306.99 243.93L1299.5 243.93z" stroke="rgba(192, 105, 0, 1)"></path><path d="M549.31 406.92 a48.73 48.73 0 1 0 97.46 0 a48.73 48.73 0 1 0 -97.46 0z" stroke="rgba(192, 105, 0, 1)"></path><path d="M833.86 529.91a0.09 0.09 0 1 0 0.15-0.1z" stroke="rgba(192, 105, 0, 1)"></path><path d="M792.69 160.74 a10.98 10.98 0 1 0 21.96 0 a10.98 10.98 0 1 0 -21.96 0z" fill="rgba(23, 113, 200, 1)"></path><path d="M596.85 238.22 a2.16 2.16 0 1 0 4.32 0 a2.16 2.16 0 1 0 -4.32 0z" stroke="rgba(192, 105, 0, 1)"></path><path d="M798.22 60 a26 26 0 1 0 52 0 a26 26 0 1 0 -52 0z" fill="rgba(186, 158, 1, 1)"></path><path d="M1180.64 14.08a47.27 47.27 0 1 0-74.4 58.33z" fill="rgba(186, 158, 1, 1)"></path><path d="M370.55 31.87L393.33 31.87L393.33 54.65L370.55 54.65z" stroke="rgba(23, 113, 200, 1)"></path><path d="M666.99 340.82 a53.01 53.01 0 1 0 106.02 0 a53.01 53.01 0 1 0 -106.02 0z" fill="rgba(186, 158, 1, 1)"></path></g><defs><mask id="SvgjsMask1033"><rect width="1440" height="560" fill="#ffffff"></rect></mask></defs></svg>